<svg width="635" height="600" viewBox="0 0 635 600" fill="none" xmlns="http://www.w3.org/2000/svg">
<g clip-path="url(#clip0_4_448)">
<rect width="751" height="674" fill="white"/>
<path fill-rule="evenodd" clip-rule="evenodd" d="M179.047 73H330.228C390.372 73 448.052 96.8919 490.58 139.42C533.108 181.948 557 239.628 557 299.771C557 359.915 533.108 417.595 490.58 460.123C448.052 502.651 390.372 526.543 330.228 526.543H176.704C164.407 526.155 152.404 522.692 141.79 516.471C131.177 510.249 122.291 501.467 115.946 490.927C109.601 480.386 105.998 468.424 105.467 456.133C104.936 443.842 107.493 431.613 112.906 420.565L124.244 397.434C129.833 386.008 130.938 372.902 127.342 360.701C123.746 348.5 115.71 338.088 104.817 331.519L89.926 322.524C88.1874 321.466 86.5244 320.256 85.0126 318.745L84.4835 318.215C79.6878 313.304 77.0022 306.712 77 299.847V299.696C77 292.817 79.7213 286.241 84.5591 281.327L85.0126 280.798C86.5244 279.286 88.1874 278.077 89.926 277.019L104.817 267.948C127.343 254.342 135.809 225.768 124.244 202.184L112.906 178.978C107.414 167.753 104.871 155.315 105.514 142.835C106.157 130.355 109.966 118.245 116.582 107.644C123.199 97.0429 132.404 88.3004 143.332 82.2395C154.26 76.1787 166.551 72.999 179.047 73V73ZM322.216 473.554C339.828 456.168 352.301 432.357 358.953 408.546C364.849 387.759 369.157 365.989 367.797 344.597C367.423 340.691 365.545 337.084 362.56 334.538C359.575 331.992 355.718 330.705 351.802 330.95C347.887 331.196 344.22 332.954 341.576 335.853C338.933 338.752 337.52 342.565 337.636 346.486C338.77 364.552 334.764 382.921 329.85 400.458C324.332 420.111 314.128 439.841 299.236 453.674C296.535 456.172 294.838 459.569 294.462 463.228C294.087 466.888 295.058 470.559 297.195 473.554L297.498 473.932L297.724 474.31L298.102 474.688L298.405 474.99C299.808 476.524 301.512 477.752 303.411 478.597C305.31 479.442 307.362 479.887 309.441 479.903H309.592C313.372 479.903 316.924 478.392 319.721 475.897L320.25 475.368L320.628 474.99L321.384 474.31L321.913 473.856L322.216 473.554V473.554ZM384.956 387.683C384.805 400.156 383.444 414.82 375.809 425.025C374.618 426.613 373.752 428.42 373.259 430.344C372.766 432.267 372.657 434.268 372.938 436.234C373.219 438.199 373.884 440.09 374.895 441.798C375.907 443.507 377.245 444.999 378.833 446.19C380.421 447.381 382.229 448.248 384.152 448.741C386.075 449.233 388.077 449.343 390.042 449.062C394.011 448.495 397.593 446.374 399.998 443.166C411.413 427.897 415.041 406.505 415.117 387.985C415.157 383.976 413.602 380.115 410.795 377.251C407.989 374.388 404.159 372.756 400.15 372.716C396.14 372.676 392.279 374.23 389.415 377.037C386.552 379.844 384.92 383.674 384.88 387.683H384.956ZM283.816 374.455C282.304 387.759 279.205 403.179 269.907 413.308C267.32 416.276 265.993 420.136 266.207 424.067C266.422 427.998 268.162 431.69 271.057 434.359C273.951 437.027 277.773 438.461 281.708 438.355C285.644 438.25 289.383 436.613 292.131 433.793C305.661 419.129 311.709 397.207 313.825 377.856C314.078 373.98 312.828 370.156 310.336 367.176C307.845 364.196 304.301 362.29 300.442 361.852C296.582 361.415 292.702 362.48 289.607 364.826C286.511 367.172 284.437 370.62 283.816 374.455ZM498.191 344.445C505.003 318.707 505.818 291.749 500.574 265.646C495.329 239.543 484.165 214.992 467.94 193.882C451.715 172.773 430.863 155.668 406.988 143.884C383.113 132.1 356.853 125.952 330.228 125.913H179.047L177.687 125.989C174.295 126.2 171.009 127.245 168.118 129.032C165.228 130.818 162.823 133.291 161.118 136.23C159.413 139.169 158.46 142.483 158.344 145.879C158.228 149.275 158.952 152.647 160.452 155.696L171.791 178.827C181.484 198.695 184.585 221.138 180.642 242.89C176.699 264.642 165.919 284.569 149.869 299.771C159.784 309.181 167.745 320.455 173.296 332.946C178.848 345.437 181.881 358.9 182.222 372.565L185.397 371.582C195.397 368.005 204.859 363.071 213.517 356.918C240.956 338.171 268.698 318.367 300.748 308.238C373.315 285.182 436.282 310.808 498.039 344.445H498.191V344.445ZM414.814 205.812C424.838 205.812 434.451 209.794 441.539 216.882C448.627 223.97 452.609 233.584 452.609 243.608C452.609 253.632 448.627 263.245 441.539 270.333C434.451 277.421 424.838 281.403 414.814 281.403C404.79 281.403 395.177 277.421 388.089 270.333C381.001 263.245 377.019 253.632 377.019 243.608C377.019 233.584 381.001 223.97 388.089 216.882C395.177 209.794 404.79 205.812 414.814 205.812V205.812Z" fill="#111214"/>
</g>
<defs>
<clipPath id="clip0_4_448">
<rect width="635" height="600" rx="180" fill="white"/>
</clipPath>
</defs>
</svg>
