<svg xmlns="http://www.w3.org/2000/svg" width="128" height="121" fill="none" viewBox="0 0 128 121">
    <path
        d="M27.213 0h40.314a60.46 60.46 0 0 1 42.761 17.72 60.52 60.52 0 0 1 0 85.56A60.46 60.46 0 0 1 67.528 121h-40.94A19.64 19.64 0 0 1 7.59 102.215a19.65 19.65 0 0 1 1.984-9.489l3.023-6.17a13.58 13.58 0 0 0-5.18-17.586l-3.971-2.4a7 7 0 0 1-1.31-1.008l-.141-.141A7.02 7.02 0 0 1 0 60.52v-.04a7.02 7.02 0 0 1 2.016-4.9l.12-.142a7 7 0 0 1 1.31-1.008l3.972-2.42c6.007-3.63 8.265-11.253 5.18-17.545l-3.023-6.191a19.65 19.65 0 0 1 8.114-25.809A19.6 19.6 0 0 1 27.213 0M65.39 106.863c4.697-4.638 8.022-10.99 9.796-17.343 1.573-5.546 2.722-11.354 2.359-17.061a4.035 4.035 0 0 0-4.266-3.64 4.03 4.03 0 0 0-3.777 4.144c.302 4.82-.766 9.72-2.077 14.4-1.47 5.242-4.192 10.506-8.163 14.197a4.03 4.03 0 0 0-.544 5.303l.08.101.06.101.101.101.081.08a4.03 4.03 0 0 0 2.943 1.311h.04a4.03 4.03 0 0 0 2.702-1.069l.14-.141.102-.101.201-.181.141-.121zm16.73-22.91c-.04 3.328-.403 7.241-2.438 9.963a4.032 4.032 0 0 0 6.45 4.84c3.043-4.073 4.011-9.78 4.031-14.722a4.034 4.034 0 0 0-3.99-4.073 4.03 4.03 0 0 0-4.073 3.993zm-26.97-3.528c-.403 3.549-1.23 7.663-3.71 10.365a4.034 4.034 0 0 0 3.148 6.683 4.03 4.03 0 0 0 2.779-1.218c3.608-3.912 5.221-9.76 5.785-14.923a4.034 4.034 0 0 0-3.569-4.27 4.03 4.03 0 0 0-4.433 3.363m57.166-8.007a46.45 46.45 0 0 0-8.066-40.168 46.39 46.39 0 0 0-36.724-18.133H27.213l-.363.02a5.5 5.5 0 0 0-5.158 5.306 5.5 5.5 0 0 0 .562 2.62l3.023 6.17A27.72 27.72 0 0 1 19.433 60.5a27.73 27.73 0 0 1 8.627 19.42l.847-.261a31 31 0 0 0 7.498-3.913c7.317-5.001 14.715-10.285 23.262-12.987 19.352-6.15 36.142.685 52.611 9.66zM90.084 35.433a10.084 10.084 0 0 1 0 20.167 10.084 10.084 0 0 1 0-20.167"
    />
    <style>
        path { fill: #000; }
        @media (prefers-color-scheme: dark) {
            path { fill: #FFF; }
        }
    </style>
</svg>