<?xml version="1.0" encoding="UTF-8" standalone="no"?>
<!DOCTYPE svg PUBLIC "-//W3C//DTD SVG 1.1//EN" "http://www.w3.org/Graphics/SVG/1.1/DTD/svg11.dtd">
<svg width="100%" height="100%" viewBox="0 0 80 160" version="1.1" xmlns="http://www.w3.org/2000/svg" xmlns:xlink="http://www.w3.org/1999/xlink" xml:space="preserve" xmlns:serif="http://www.serif.com/" style="fill-rule:evenodd;clip-rule:evenodd;stroke-linejoin:round;stroke-miterlimit:2;fill:currentColor;">
    <path d="M80,159.984L80,-0.016L0,-0.016L0,1L4,1L4,4.984L0,4.984L0,6L4,6L4,9.984L0,9.984L0,11L4,11L4,14.984L0,14.984L0,16L4,16L4,19.984L0,19.984L0,21L4,21L4,24.984L0,24.984L0,26L4,26L4,29.984L0,29.984L0,31L4,31L4,34.984L0,34.984L0,36L4,36L4,39.984L0,39.984L0,41L4,41L4,44.984L0,44.984L0,46L4,46L4,49.984L0,49.984L0,51L4,51L4,54.984L0,54.984L0,56L4,56L4,59.984L0,59.984L0,61L4,61L4,64.984L0,64.984L0,66L4,66L4,69.984L0,69.984L0,71L4,71L4,74.984L0,74.984L0,76L4,76L4,79.984L0,79.984L0,81L4,81L4,84.984L0,84.984L0,86L4,86L4,89.984L0,89.984L0,91L4,91L4,94.984L0,94.984L0,96L4,96L4,99.984L0,99.984L0,101L4,101L4,104.984L0,104.984L0,106L4,106L4,109.984L0,109.984L0,111L4,111L4,114.984L0,114.984L0,116L4,116L4,119.984L0,119.984L0,121L4,121L4,124.984L0,124.984L0,126L4,126L4,129.984L0,129.984L0,131L4,131L4,134.984L0,134.984L0,136L4,136L4,139.984L0,139.984L0,141L4,141L4,144.984L0,144.984L0,146L4,146L4,149.984L0,149.984L0,151L4,151L4,154.984L0,154.984L0,156L4,156L4,160L5,160L5,156L8.995,156L8.995,160L9.995,160L9.995,156L13.995,156L13.995,160L14.995,160L14.995,156L18.995,156L18.995,160L19.995,160L19.995,156L23.995,156L23.995,160L24.995,160L24.995,156L29.006,156L29.006,159.984L30.006,159.984L30.006,156L34.001,156L34.001,159.984L35.001,159.984L35.001,156L39.001,156L39.001,159.984L40.001,159.984L40.001,156L44.001,156L44.001,159.984L45.001,159.984L45.001,156L49.001,156L49.001,159.984L50.001,159.984L50.001,156L53.994,156L53.994,160L54.994,160L54.994,156L59.005,156L59.005,159.984L60.005,159.984L60.005,156L64,156L64,159.984L65,159.984L65,156L69,156L69,159.984L70,159.984L70,156L74,156L74,159.984L75,159.984L75,156L79,156L79,159.984L80,159.984ZM79,151L75,151L75,154.984L79,154.984L79,151ZM74,151L70,151L70,154.984L74,154.984L74,151ZM69,151L65,151L65,154.984L69,154.984L69,151ZM64,151L60.005,151L60.005,154.984L64,154.984L64,151ZM59.005,151L54.994,151L54.994,154.984L59.005,154.984L59.005,151ZM53.994,151L50.001,151L50.001,154.984L53.994,154.984L53.994,151ZM49.001,151L45.001,151L45.001,154.984L49.001,154.984L49.001,151ZM44.001,151L40.001,151L40.001,154.984L44.001,154.984L44.001,151ZM39.001,151L35.001,151L35.001,154.984L39.001,154.984L39.001,151ZM34.001,151L30.006,151L30.006,154.984L34.001,154.984L34.001,151ZM29.006,151L24.995,151L24.995,154.984L29.006,154.984L29.006,151ZM23.995,151L19.995,151L19.995,154.984L23.995,154.984L23.995,151ZM18.995,151L14.995,151L14.995,154.984L18.995,154.984L18.995,151ZM13.995,151L9.995,151L9.995,154.984L13.995,154.984L13.995,151ZM8.995,151L5,151L5,154.984L8.995,154.984L8.995,151ZM79,146L75,146L75,149.984L79,149.984L79,146ZM74,146L70,146L70,149.984L74,149.984L74,146ZM69,146L65,146L65,149.984L69,149.984L69,146ZM64,146L60.005,146L60.005,149.984L64,149.984L64,146ZM59.005,146L54.994,146L54.994,149.984L59.005,149.984L59.005,146ZM53.994,146L50.001,146L50.001,149.984L53.994,149.984L53.994,146ZM49.001,146L45.001,146L45.001,149.984L49.001,149.984L49.001,146ZM44.001,146L40.001,146L40.001,149.984L44.001,149.984L44.001,146ZM39.001,146L35.001,146L35.001,149.984L39.001,149.984L39.001,146ZM34.001,146L30.006,146L30.006,149.984L34.001,149.984L34.001,146ZM29.006,146L24.995,146L24.995,149.984L29.006,149.984L29.006,146ZM23.995,146L19.995,146L19.995,149.984L23.995,149.984L23.995,146ZM18.995,146L14.995,146L14.995,149.984L18.995,149.984L18.995,146ZM13.995,146L9.995,146L9.995,149.984L13.995,149.984L13.995,146ZM8.995,146L5,146L5,149.984L8.995,149.984L8.995,146ZM79,141L75,141L75,144.984L79,144.984L79,141ZM74,141L70,141L70,144.984L74,144.984L74,141ZM69,141L65,141L65,144.984L69,144.984L69,141ZM64,141L60.005,141L60.005,144.984L64,144.984L64,141ZM59.005,141L54.994,141L54.994,144.984L59.005,144.984L59.005,141ZM53.994,141L50.001,141L50.001,144.984L53.994,144.984L53.994,141ZM49.001,141L45.001,141L45.001,144.984L49.001,144.984L49.001,141ZM44.001,141L40.001,141L40.001,144.984L44.001,144.984L44.001,141ZM39.001,141L35.001,141L35.001,144.984L39.001,144.984L39.001,141ZM34.001,141L30.006,141L30.006,144.984L34.001,144.984L34.001,141ZM29.006,141L24.995,141L24.995,144.984L29.006,144.984L29.006,141ZM23.995,141L19.995,141L19.995,144.984L23.995,144.984L23.995,141ZM18.995,141L14.995,141L14.995,144.984L18.995,144.984L18.995,141ZM13.995,141L9.995,141L9.995,144.984L13.995,144.984L13.995,141ZM8.995,141L5,141L5,144.984L8.995,144.984L8.995,141ZM79,136L75,136L75,139.984L79,139.984L79,136ZM74,136L70,136L70,139.984L74,139.984L74,136ZM69,136L65,136L65,139.984L69,139.984L69,136ZM64,136L60.005,136L60.005,139.984L64,139.984L64,136ZM59.005,136L54.994,136L54.994,139.984L59.005,139.984L59.005,136ZM53.994,136L50.001,136L50.001,139.984L53.994,139.984L53.994,136ZM49.001,136L45.001,136L45.001,139.984L49.001,139.984L49.001,136ZM44.001,136L40.001,136L40.001,139.984L44.001,139.984L44.001,136ZM39.001,136L35.001,136L35.001,139.984L39.001,139.984L39.001,136ZM34.001,136L30.006,136L30.006,139.984L34.001,139.984L34.001,136ZM29.006,136L24.995,136L24.995,139.984L29.006,139.984L29.006,136ZM23.995,136L19.995,136L19.995,139.984L23.995,139.984L23.995,136ZM18.995,136L14.995,136L14.995,139.984L18.995,139.984L18.995,136ZM13.995,136L9.995,136L9.995,139.984L13.995,139.984L13.995,136ZM8.995,136L5,136L5,139.984L8.995,139.984L8.995,136ZM79,131L75,131L75,134.984L79,134.984L79,131ZM74,131L70,131L70,134.984L74,134.984L74,131ZM69,131L65,131L65,134.984L69,134.984L69,131ZM64,131L60.005,131L60.005,134.984L64,134.984L64,131ZM59.005,131L54.994,131L54.994,134.984L59.005,134.984L59.005,131ZM53.994,131L50.001,131L50.001,134.984L53.994,134.984L53.994,131ZM49.001,131L45.001,131L45.001,134.984L49.001,134.984L49.001,131ZM44.001,131L40.001,131L40.001,134.984L44.001,134.984L44.001,131ZM39.001,131L35.001,131L35.001,134.984L39.001,134.984L39.001,131ZM34.001,131L30.006,131L30.006,134.984L34.001,134.984L34.001,131ZM29.006,131L24.995,131L24.995,134.984L29.006,134.984L29.006,131ZM23.995,131L19.995,131L19.995,134.984L23.995,134.984L23.995,131ZM18.995,131L14.995,131L14.995,134.984L18.995,134.984L18.995,131ZM13.995,131L9.995,131L9.995,134.984L13.995,134.984L13.995,131ZM8.995,131L5,131L5,134.984L8.995,134.984L8.995,131ZM79,126L75,126L75,129.984L79,129.984L79,126ZM74,126L70,126L70,129.984L74,129.984L74,126ZM69,126L65,126L65,129.984L69,129.984L69,126ZM64,126L60.005,126L60.005,129.984L64,129.984L64,126ZM59.005,126L54.994,126L54.994,129.984L59.005,129.984L59.005,126ZM53.994,126L50.001,126L50.001,129.984L53.994,129.984L53.994,126ZM49.001,126L45.001,126L45.001,129.984L49.001,129.984L49.001,126ZM44.001,126L40.001,126L40.001,129.984L44.001,129.984L44.001,126ZM39.001,126L35.001,126L35.001,129.984L39.001,129.984L39.001,126ZM34.001,126L30.006,126L30.006,129.984L34.001,129.984L34.001,126ZM29.006,126L24.995,126L24.995,129.984L29.006,129.984L29.006,126ZM23.995,126L19.995,126L19.995,129.984L23.995,129.984L23.995,126ZM18.995,126L14.995,126L14.995,129.984L18.995,129.984L18.995,126ZM13.995,126L9.995,126L9.995,129.984L13.995,129.984L13.995,126ZM8.995,126L5,126L5,129.984L8.995,129.984L8.995,126ZM79,121L75,121L75,124.984L79,124.984L79,121ZM74,121L70,121L70,124.984L74,124.984L74,121ZM69,121L65,121L65,124.984L69,124.984L69,121ZM64,121L60.005,121L60.005,124.984L64,124.984L64,121ZM59.005,121L54.994,121L54.994,124.984L59.005,124.984L59.005,121ZM53.994,121L50.001,121L50.001,124.984L53.994,124.984L53.994,121ZM49.001,121L45.001,121L45.001,124.984L49.001,124.984L49.001,121ZM44.001,121L40.001,121L40.001,124.984L44.001,124.984L44.001,121ZM39.001,121L35.001,121L35.001,124.984L39.001,124.984L39.001,121ZM34.001,121L30.006,121L30.006,124.984L34.001,124.984L34.001,121ZM29.006,121L24.995,121L24.995,124.984L29.006,124.984L29.006,121ZM23.995,121L19.995,121L19.995,124.984L23.995,124.984L23.995,121ZM18.995,121L14.995,121L14.995,124.984L18.995,124.984L18.995,121ZM13.995,121L9.995,121L9.995,124.984L13.995,124.984L13.995,121ZM8.995,121L5,121L5,124.984L8.995,124.984L8.995,121ZM79,116L75,116L75,119.984L79,119.984L79,116ZM74,116L70,116L70,119.984L74,119.984L74,116ZM69,116L65,116L65,119.984L69,119.984L69,116ZM64,116L60.005,116L60.005,119.984L64,119.984L64,116ZM59.005,116L54.994,116L54.994,119.984L59.005,119.984L59.005,116ZM53.994,116L50.001,116L50.001,119.984L53.994,119.984L53.994,116ZM49.001,116L45.001,116L45.001,119.984L49.001,119.984L49.001,116ZM44.001,116L40.001,116L40.001,119.984L44.001,119.984L44.001,116ZM39.001,116L35.001,116L35.001,119.984L39.001,119.984L39.001,116ZM34.001,116L30.006,116L30.006,119.984L34.001,119.984L34.001,116ZM29.006,116L24.995,116L24.995,119.984L29.006,119.984L29.006,116ZM23.995,116L19.995,116L19.995,119.984L23.995,119.984L23.995,116ZM18.995,116L14.995,116L14.995,119.984L18.995,119.984L18.995,116ZM13.995,116L9.995,116L9.995,119.984L13.995,119.984L13.995,116ZM8.995,116L5,116L5,119.984L8.995,119.984L8.995,116ZM79,111L75,111L75,114.984L79,114.984L79,111ZM74,111L70,111L70,114.984L74,114.984L74,111ZM69,111L65,111L65,114.984L69,114.984L69,111ZM64,111L60.005,111L60.005,114.984L64,114.984L64,111ZM59.005,111L54.994,111L54.994,114.984L59.005,114.984L59.005,111ZM53.994,111L50.001,111L50.001,114.984L53.994,114.984L53.994,111ZM49.001,111L45.001,111L45.001,114.984L49.001,114.984L49.001,111ZM44.001,111L40.001,111L40.001,114.984L44.001,114.984L44.001,111ZM39.001,111L35.001,111L35.001,114.984L39.001,114.984L39.001,111ZM34.001,111L30.006,111L30.006,114.984L34.001,114.984L34.001,111ZM29.006,111L24.995,111L24.995,114.984L29.006,114.984L29.006,111ZM23.995,111L19.995,111L19.995,114.984L23.995,114.984L23.995,111ZM18.995,111L14.995,111L14.995,114.984L18.995,114.984L18.995,111ZM13.995,111L9.995,111L9.995,114.984L13.995,114.984L13.995,111ZM8.995,111L5,111L5,114.984L8.995,114.984L8.995,111ZM79,106L75,106L75,109.984L79,109.984L79,106ZM74,106L70,106L70,109.984L74,109.984L74,106ZM69,106L65,106L65,109.984L69,109.984L69,106ZM64,106L60.005,106L60.005,109.984L64,109.984L64,106ZM59.005,106L54.994,106L54.994,109.984L59.005,109.984L59.005,106ZM53.994,106L50.001,106L50.001,109.984L53.994,109.984L53.994,106ZM49.001,106L45.001,106L45.001,109.984L49.001,109.984L49.001,106ZM44.001,106L40.001,106L40.001,109.984L44.001,109.984L44.001,106ZM39.001,106L35.001,106L35.001,109.984L39.001,109.984L39.001,106ZM34.001,106L30.006,106L30.006,109.984L34.001,109.984L34.001,106ZM29.006,106L24.995,106L24.995,109.984L29.006,109.984L29.006,106ZM23.995,106L19.995,106L19.995,109.984L23.995,109.984L23.995,106ZM18.995,106L14.995,106L14.995,109.984L18.995,109.984L18.995,106ZM13.995,106L9.995,106L9.995,109.984L13.995,109.984L13.995,106ZM8.995,106L5,106L5,109.984L8.995,109.984L8.995,106ZM79,101L75,101L75,104.984L79,104.984L79,101ZM74,101L70,101L70,104.984L74,104.984L74,101ZM69,101L65,101L65,104.984L69,104.984L69,101ZM64,101L60.005,101L60.005,104.984L64,104.984L64,101ZM59.005,101L54.994,101L54.994,104.984L59.005,104.984L59.005,101ZM53.994,101L50.001,101L50.001,104.984L53.994,104.984L53.994,101ZM49.001,101L45.001,101L45.001,104.984L49.001,104.984L49.001,101ZM44.001,101L40.001,101L40.001,104.984L44.001,104.984L44.001,101ZM39.001,101L35.001,101L35.001,104.984L39.001,104.984L39.001,101ZM34.001,101L30.006,101L30.006,104.984L34.001,104.984L34.001,101ZM29.006,101L24.995,101L24.995,104.984L29.006,104.984L29.006,101ZM23.995,101L19.995,101L19.995,104.984L23.995,104.984L23.995,101ZM18.995,101L14.995,101L14.995,104.984L18.995,104.984L18.995,101ZM13.995,101L9.995,101L9.995,104.984L13.995,104.984L13.995,101ZM8.995,101L5,101L5,104.984L8.995,104.984L8.995,101ZM79,96L75,96L75,99.984L79,99.984L79,96ZM74,96L70,96L70,99.984L74,99.984L74,96ZM69,96L65,96L65,99.984L69,99.984L69,96ZM64,96L60.005,96L60.005,99.984L64,99.984L64,96ZM59.005,96L54.994,96L54.994,99.984L59.005,99.984L59.005,96ZM53.994,96L50.001,96L50.001,99.984L53.994,99.984L53.994,96ZM49.001,96L45.001,96L45.001,99.984L49.001,99.984L49.001,96ZM44.001,96L40.001,96L40.001,99.984L44.001,99.984L44.001,96ZM39.001,96L35.001,96L35.001,99.984L39.001,99.984L39.001,96ZM34.001,96L30.006,96L30.006,99.984L34.001,99.984L34.001,96ZM29.006,96L24.995,96L24.995,99.984L29.006,99.984L29.006,96ZM23.995,96L19.995,96L19.995,99.984L23.995,99.984L23.995,96ZM18.995,96L14.995,96L14.995,99.984L18.995,99.984L18.995,96ZM13.995,96L9.995,96L9.995,99.984L13.995,99.984L13.995,96ZM8.995,96L5,96L5,99.984L8.995,99.984L8.995,96ZM79,91L75,91L75,94.984L79,94.984L79,91ZM74,91L70,91L70,94.984L74,94.984L74,91ZM69,91L65,91L65,94.984L69,94.984L69,91ZM64,91L60.005,91L60.005,94.984L64,94.984L64,91ZM59.005,91L54.994,91L54.994,94.984L59.005,94.984L59.005,91ZM53.994,91L50.001,91L50.001,94.984L53.994,94.984L53.994,91ZM49.001,91L45.001,91L45.001,94.984L49.001,94.984L49.001,91ZM44.001,91L40.001,91L40.001,94.984L44.001,94.984L44.001,91ZM39.001,91L35.001,91L35.001,94.984L39.001,94.984L39.001,91ZM34.001,91L30.006,91L30.006,94.984L34.001,94.984L34.001,91ZM29.006,91L24.995,91L24.995,94.984L29.006,94.984L29.006,91ZM23.995,91L19.995,91L19.995,94.984L23.995,94.984L23.995,91ZM18.995,91L14.995,91L14.995,94.984L18.995,94.984L18.995,91ZM13.995,91L9.995,91L9.995,94.984L13.995,94.984L13.995,91ZM8.995,91L5,91L5,94.984L8.995,94.984L8.995,91ZM79,86L75,86L75,89.984L79,89.984L79,86ZM74,86L70,86L70,89.984L74,89.984L74,86ZM69,86L65,86L65,89.984L69,89.984L69,86ZM64,86L60.005,86L60.005,89.984L64,89.984L64,86ZM59.005,86L54.994,86L54.994,89.984L59.005,89.984L59.005,86ZM53.994,86L50.001,86L50.001,89.984L53.994,89.984L53.994,86ZM49.001,86L45.001,86L45.001,89.984L49.001,89.984L49.001,86ZM44.001,86L40.001,86L40.001,89.984L44.001,89.984L44.001,86ZM39.001,86L35.001,86L35.001,89.984L39.001,89.984L39.001,86ZM34.001,86L30.006,86L30.006,89.984L34.001,89.984L34.001,86ZM29.006,86L24.995,86L24.995,89.984L29.006,89.984L29.006,86ZM23.995,86L19.995,86L19.995,89.984L23.995,89.984L23.995,86ZM18.995,86L14.995,86L14.995,89.984L18.995,89.984L18.995,86ZM13.995,86L9.995,86L9.995,89.984L13.995,89.984L13.995,86ZM8.995,86L5,86L5,89.984L8.995,89.984L8.995,86ZM79,81L75,81L75,84.984L79,84.984L79,81ZM74,81L70,81L70,84.984L74,84.984L74,81ZM69,81L65,81L65,84.984L69,84.984L69,81ZM64,81L60.005,81L60.005,84.984L64,84.984L64,81ZM59.005,81L54.994,81L54.994,84.984L59.005,84.984L59.005,81ZM53.994,81L50.001,81L50.001,84.984L53.994,84.984L53.994,81ZM49.001,81L45.001,81L45.001,84.984L49.001,84.984L49.001,81ZM44.001,81L40.001,81L40.001,84.984L44.001,84.984L44.001,81ZM39.001,81L35.001,81L35.001,84.984L39.001,84.984L39.001,81ZM34.001,81L30.006,81L30.006,84.984L34.001,84.984L34.001,81ZM29.006,81L24.995,81L24.995,84.984L29.006,84.984L29.006,81ZM23.995,81L19.995,81L19.995,84.984L23.995,84.984L23.995,81ZM18.995,81L14.995,81L14.995,84.984L18.995,84.984L18.995,81ZM13.995,81L9.995,81L9.995,84.984L13.995,84.984L13.995,81ZM8.995,81L5,81L5,84.984L8.995,84.984L8.995,81ZM79,76L75,76L75,79.984L79,79.984L79,76ZM74,76L70,76L70,79.984L74,79.984L74,76ZM69,76L65,76L65,79.984L69,79.984L69,76ZM64,76L60.005,76L60.005,79.984L64,79.984L64,76ZM59.005,76L54.994,76L54.994,79.984L59.005,79.984L59.005,76ZM53.994,76L50.001,76L50.001,79.984L53.994,79.984L53.994,76ZM49.001,76L45.001,76L45.001,79.984L49.001,79.984L49.001,76ZM44.001,76L40.001,76L40.001,79.984L44.001,79.984L44.001,76ZM39.001,76L35.001,76L35.001,79.984L39.001,79.984L39.001,76ZM34.001,76L30.006,76L30.006,79.984L34.001,79.984L34.001,76ZM29.006,76L24.995,76L24.995,79.984L29.006,79.984L29.006,76ZM23.995,76L19.995,76L19.995,79.984L23.995,79.984L23.995,76ZM18.995,76L14.995,76L14.995,79.984L18.995,79.984L18.995,76ZM13.995,76L9.995,76L9.995,79.984L13.995,79.984L13.995,76ZM8.995,76L5,76L5,79.984L8.995,79.984L8.995,76ZM79,71L75,71L75,74.984L79,74.984L79,71ZM74,71L70,71L70,74.984L74,74.984L74,71ZM69,71L65,71L65,74.984L69,74.984L69,71ZM64,71L60.005,71L60.005,74.984L64,74.984L64,71ZM59.005,71L54.994,71L54.994,74.984L59.005,74.984L59.005,71ZM53.994,71L50.001,71L50.001,74.984L53.994,74.984L53.994,71ZM49.001,71L45.001,71L45.001,74.984L49.001,74.984L49.001,71ZM44.001,71L40.001,71L40.001,74.984L44.001,74.984L44.001,71ZM39.001,71L35.001,71L35.001,74.984L39.001,74.984L39.001,71ZM34.001,71L30.006,71L30.006,74.984L34.001,74.984L34.001,71ZM29.006,71L24.995,71L24.995,74.984L29.006,74.984L29.006,71ZM23.995,71L19.995,71L19.995,74.984L23.995,74.984L23.995,71ZM18.995,71L14.995,71L14.995,74.984L18.995,74.984L18.995,71ZM13.995,71L9.995,71L9.995,74.984L13.995,74.984L13.995,71ZM8.995,71L5,71L5,74.984L8.995,74.984L8.995,71ZM79,66L75,66L75,69.984L79,69.984L79,66ZM74,66L70,66L70,69.984L74,69.984L74,66ZM69,66L65,66L65,69.984L69,69.984L69,66ZM64,66L60.005,66L60.005,69.984L64,69.984L64,66ZM59.005,66L54.994,66L54.994,69.984L59.005,69.984L59.005,66ZM53.994,66L50.001,66L50.001,69.984L53.994,69.984L53.994,66ZM49.001,66L45.001,66L45.001,69.984L49.001,69.984L49.001,66ZM44.001,66L40.001,66L40.001,69.984L44.001,69.984L44.001,66ZM39.001,66L35.001,66L35.001,69.984L39.001,69.984L39.001,66ZM34.001,66L30.006,66L30.006,69.984L34.001,69.984L34.001,66ZM29.006,66L24.995,66L24.995,69.984L29.006,69.984L29.006,66ZM23.995,66L19.995,66L19.995,69.984L23.995,69.984L23.995,66ZM18.995,66L14.995,66L14.995,69.984L18.995,69.984L18.995,66ZM13.995,66L9.995,66L9.995,69.984L13.995,69.984L13.995,66ZM8.995,66L5,66L5,69.984L8.995,69.984L8.995,66ZM79,61L75,61L75,64.984L79,64.984L79,61ZM74,61L70,61L70,64.984L74,64.984L74,61ZM69,61L65,61L65,64.984L69,64.984L69,61ZM64,61L60.005,61L60.005,64.984L64,64.984L64,61ZM59.005,61L54.994,61L54.994,64.984L59.005,64.984L59.005,61ZM53.994,61L50.001,61L50.001,64.984L53.994,64.984L53.994,61ZM49.001,61L45.001,61L45.001,64.984L49.001,64.984L49.001,61ZM44.001,61L40.001,61L40.001,64.984L44.001,64.984L44.001,61ZM39.001,61L35.001,61L35.001,64.984L39.001,64.984L39.001,61ZM34.001,61L30.006,61L30.006,64.984L34.001,64.984L34.001,61ZM29.006,61L24.995,61L24.995,64.984L29.006,64.984L29.006,61ZM23.995,61L19.995,61L19.995,64.984L23.995,64.984L23.995,61ZM18.995,61L14.995,61L14.995,64.984L18.995,64.984L18.995,61ZM13.995,61L9.995,61L9.995,64.984L13.995,64.984L13.995,61ZM8.995,61L5,61L5,64.984L8.995,64.984L8.995,61ZM79,56L75,56L75,59.984L79,59.984L79,56ZM74,56L70,56L70,59.984L74,59.984L74,56ZM69,56L65,56L65,59.984L69,59.984L69,56ZM64,56L60.005,56L60.005,59.984L64,59.984L64,56ZM59.005,56L54.994,56L54.994,59.984L59.005,59.984L59.005,56ZM53.994,56L50.001,56L50.001,59.984L53.994,59.984L53.994,56ZM49.001,56L45.001,56L45.001,59.984L49.001,59.984L49.001,56ZM44.001,56L40.001,56L40.001,59.984L44.001,59.984L44.001,56ZM39.001,56L35.001,56L35.001,59.984L39.001,59.984L39.001,56ZM34.001,56L30.006,56L30.006,59.984L34.001,59.984L34.001,56ZM29.006,56L24.995,56L24.995,59.984L29.006,59.984L29.006,56ZM23.995,56L19.995,56L19.995,59.984L23.995,59.984L23.995,56ZM18.995,56L14.995,56L14.995,59.984L18.995,59.984L18.995,56ZM13.995,56L9.995,56L9.995,59.984L13.995,59.984L13.995,56ZM8.995,56L5,56L5,59.984L8.995,59.984L8.995,56ZM79,51L75,51L75,54.984L79,54.984L79,51ZM74,51L70,51L70,54.984L74,54.984L74,51ZM69,51L65,51L65,54.984L69,54.984L69,51ZM64,51L60.005,51L60.005,54.984L64,54.984L64,51ZM59.005,51L54.994,51L54.994,54.984L59.005,54.984L59.005,51ZM53.994,51L50.001,51L50.001,54.984L53.994,54.984L53.994,51ZM49.001,51L45.001,51L45.001,54.984L49.001,54.984L49.001,51ZM44.001,51L40.001,51L40.001,54.984L44.001,54.984L44.001,51ZM39.001,51L35.001,51L35.001,54.984L39.001,54.984L39.001,51ZM34.001,51L30.006,51L30.006,54.984L34.001,54.984L34.001,51ZM29.006,51L24.995,51L24.995,54.984L29.006,54.984L29.006,51ZM23.995,51L19.995,51L19.995,54.984L23.995,54.984L23.995,51ZM18.995,51L14.995,51L14.995,54.984L18.995,54.984L18.995,51ZM13.995,51L9.995,51L9.995,54.984L13.995,54.984L13.995,51ZM8.995,51L5,51L5,54.984L8.995,54.984L8.995,51ZM79,46L75,46L75,49.984L79,49.984L79,46ZM74,46L70,46L70,49.984L74,49.984L74,46ZM69,46L65,46L65,49.984L69,49.984L69,46ZM64,46L60.005,46L60.005,49.984L64,49.984L64,46ZM59.005,46L54.994,46L54.994,49.984L59.005,49.984L59.005,46ZM53.994,46L50.001,46L50.001,49.984L53.994,49.984L53.994,46ZM49.001,46L45.001,46L45.001,49.984L49.001,49.984L49.001,46ZM44.001,46L40.001,46L40.001,49.984L44.001,49.984L44.001,46ZM39.001,46L35.001,46L35.001,49.984L39.001,49.984L39.001,46ZM34.001,46L30.006,46L30.006,49.984L34.001,49.984L34.001,46ZM29.006,46L24.995,46L24.995,49.984L29.006,49.984L29.006,46ZM23.995,46L19.995,46L19.995,49.984L23.995,49.984L23.995,46ZM18.995,46L14.995,46L14.995,49.984L18.995,49.984L18.995,46ZM13.995,46L9.995,46L9.995,49.984L13.995,49.984L13.995,46ZM8.995,46L5,46L5,49.984L8.995,49.984L8.995,46ZM79,41L75,41L75,44.984L79,44.984L79,41ZM74,41L70,41L70,44.984L74,44.984L74,41ZM69,41L65,41L65,44.984L69,44.984L69,41ZM64,41L60.005,41L60.005,44.984L64,44.984L64,41ZM59.005,41L54.994,41L54.994,44.984L59.005,44.984L59.005,41ZM53.994,41L50.001,41L50.001,44.984L53.994,44.984L53.994,41ZM49.001,41L45.001,41L45.001,44.984L49.001,44.984L49.001,41ZM44.001,41L40.001,41L40.001,44.984L44.001,44.984L44.001,41ZM39.001,41L35.001,41L35.001,44.984L39.001,44.984L39.001,41ZM34.001,41L30.006,41L30.006,44.984L34.001,44.984L34.001,41ZM29.006,41L24.995,41L24.995,44.984L29.006,44.984L29.006,41ZM23.995,41L19.995,41L19.995,44.984L23.995,44.984L23.995,41ZM18.995,41L14.995,41L14.995,44.984L18.995,44.984L18.995,41ZM13.995,41L9.995,41L9.995,44.984L13.995,44.984L13.995,41ZM8.995,41L5,41L5,44.984L8.995,44.984L8.995,41ZM79,36L75,36L75,39.984L79,39.984L79,36ZM74,36L70,36L70,39.984L74,39.984L74,36ZM69,36L65,36L65,39.984L69,39.984L69,36ZM64,36L60.005,36L60.005,39.984L64,39.984L64,36ZM59.005,36L54.994,36L54.994,39.984L59.005,39.984L59.005,36ZM53.994,36L50.001,36L50.001,39.984L53.994,39.984L53.994,36ZM49.001,36L45.001,36L45.001,39.984L49.001,39.984L49.001,36ZM44.001,36L40.001,36L40.001,39.984L44.001,39.984L44.001,36ZM39.001,36L35.001,36L35.001,39.984L39.001,39.984L39.001,36ZM34.001,36L30.006,36L30.006,39.984L34.001,39.984L34.001,36ZM29.006,36L24.995,36L24.995,39.984L29.006,39.984L29.006,36ZM23.995,36L19.995,36L19.995,39.984L23.995,39.984L23.995,36ZM18.995,36L14.995,36L14.995,39.984L18.995,39.984L18.995,36ZM13.995,36L9.995,36L9.995,39.984L13.995,39.984L13.995,36ZM8.995,36L5,36L5,39.984L8.995,39.984L8.995,36ZM79,31L75,31L75,34.984L79,34.984L79,31ZM74,31L70,31L70,34.984L74,34.984L74,31ZM69,31L65,31L65,34.984L69,34.984L69,31ZM64,31L60.005,31L60.005,34.984L64,34.984L64,31ZM59.005,31L54.994,31L54.994,34.984L59.005,34.984L59.005,31ZM53.994,31L50.001,31L50.001,34.984L53.994,34.984L53.994,31ZM49.001,31L45.001,31L45.001,34.984L49.001,34.984L49.001,31ZM44.001,31L40.001,31L40.001,34.984L44.001,34.984L44.001,31ZM39.001,31L35.001,31L35.001,34.984L39.001,34.984L39.001,31ZM34.001,31L30.006,31L30.006,34.984L34.001,34.984L34.001,31ZM29.006,31L24.995,31L24.995,34.984L29.006,34.984L29.006,31ZM23.995,31L19.995,31L19.995,34.984L23.995,34.984L23.995,31ZM18.995,31L14.995,31L14.995,34.984L18.995,34.984L18.995,31ZM13.995,31L9.995,31L9.995,34.984L13.995,34.984L13.995,31ZM8.995,31L5,31L5,34.984L8.995,34.984L8.995,31ZM79,26L75,26L75,29.984L79,29.984L79,26ZM74,26L70,26L70,29.984L74,29.984L74,26ZM69,26L65,26L65,29.984L69,29.984L69,26ZM64,26L60.005,26L60.005,29.984L64,29.984L64,26ZM59.005,26L54.994,26L54.994,29.984L59.005,29.984L59.005,26ZM53.994,26L50.001,26L50.001,29.984L53.994,29.984L53.994,26ZM49.001,26L45.001,26L45.001,29.984L49.001,29.984L49.001,26ZM44.001,26L40.001,26L40.001,29.984L44.001,29.984L44.001,26ZM39.001,26L35.001,26L35.001,29.984L39.001,29.984L39.001,26ZM34.001,26L30.006,26L30.006,29.984L34.001,29.984L34.001,26ZM29.006,26L24.995,26L24.995,29.984L29.006,29.984L29.006,26ZM23.995,26L19.995,26L19.995,29.984L23.995,29.984L23.995,26ZM18.995,26L14.995,26L14.995,29.984L18.995,29.984L18.995,26ZM13.995,26L9.995,26L9.995,29.984L13.995,29.984L13.995,26ZM8.995,26L5,26L5,29.984L8.995,29.984L8.995,26ZM79,21L75,21L75,24.984L79,24.984L79,21ZM74,21L70,21L70,24.984L74,24.984L74,21ZM69,21L65,21L65,24.984L69,24.984L69,21ZM64,21L60.005,21L60.005,24.984L64,24.984L64,21ZM59.005,21L54.994,21L54.994,24.984L59.005,24.984L59.005,21ZM53.994,21L50.001,21L50.001,24.984L53.994,24.984L53.994,21ZM49.001,21L45.001,21L45.001,24.984L49.001,24.984L49.001,21ZM44.001,21L40.001,21L40.001,24.984L44.001,24.984L44.001,21ZM39.001,21L35.001,21L35.001,24.984L39.001,24.984L39.001,21ZM34.001,21L30.006,21L30.006,24.984L34.001,24.984L34.001,21ZM29.006,21L24.995,21L24.995,24.984L29.006,24.984L29.006,21ZM23.995,21L19.995,21L19.995,24.984L23.995,24.984L23.995,21ZM18.995,21L14.995,21L14.995,24.984L18.995,24.984L18.995,21ZM13.995,21L9.995,21L9.995,24.984L13.995,24.984L13.995,21ZM8.995,21L5,21L5,24.984L8.995,24.984L8.995,21ZM79,16L75,16L75,19.984L79,19.984L79,16ZM74,16L70,16L70,19.984L74,19.984L74,16ZM69,16L65,16L65,19.984L69,19.984L69,16ZM64,16L60.005,16L60.005,19.984L64,19.984L64,16ZM59.005,16L54.994,16L54.994,19.984L59.005,19.984L59.005,16ZM53.994,16L50.001,16L50.001,19.984L53.994,19.984L53.994,16ZM49.001,16L45.001,16L45.001,19.984L49.001,19.984L49.001,16ZM44.001,16L40.001,16L40.001,19.984L44.001,19.984L44.001,16ZM39.001,16L35.001,16L35.001,19.984L39.001,19.984L39.001,16ZM34.001,16L30.006,16L30.006,19.984L34.001,19.984L34.001,16ZM29.006,16L24.995,16L24.995,19.984L29.006,19.984L29.006,16ZM23.995,16L19.995,16L19.995,19.984L23.995,19.984L23.995,16ZM18.995,16L14.995,16L14.995,19.984L18.995,19.984L18.995,16ZM13.995,16L9.995,16L9.995,19.984L13.995,19.984L13.995,16ZM8.995,16L5,16L5,19.984L8.995,19.984L8.995,16ZM79,11L75,11L75,14.984L79,14.984L79,11ZM74,11L70,11L70,14.984L74,14.984L74,11ZM69,11L65,11L65,14.984L69,14.984L69,11ZM64,11L60.005,11L60.005,14.984L64,14.984L64,11ZM59.005,11L54.994,11L54.994,14.984L59.005,14.984L59.005,11ZM53.994,11L50.001,11L50.001,14.984L53.994,14.984L53.994,11ZM49.001,11L45.001,11L45.001,14.984L49.001,14.984L49.001,11ZM44.001,11L40.001,11L40.001,14.984L44.001,14.984L44.001,11ZM39.001,11L35.001,11L35.001,14.984L39.001,14.984L39.001,11ZM34.001,11L30.006,11L30.006,14.984L34.001,14.984L34.001,11ZM29.006,11L24.995,11L24.995,14.984L29.006,14.984L29.006,11ZM23.995,11L19.995,11L19.995,14.984L23.995,14.984L23.995,11ZM18.995,11L14.995,11L14.995,14.984L18.995,14.984L18.995,11ZM13.995,11L9.995,11L9.995,14.984L13.995,14.984L13.995,11ZM8.995,11L5,11L5,14.984L8.995,14.984L8.995,11ZM79,6L75,6L75,9.984L79,9.984L79,6ZM74,6L70,6L70,9.984L74,9.984L74,6ZM69,6L65,6L65,9.984L69,9.984L69,6ZM64,6L60.005,6L60.005,9.984L64,9.984L64,6ZM59.005,6L54.994,6L54.994,9.984L59.005,9.984L59.005,6ZM53.994,6L50.001,6L50.001,9.984L53.994,9.984L53.994,6ZM49.001,6L45.001,6L45.001,9.984L49.001,9.984L49.001,6ZM44.001,6L40.001,6L40.001,9.984L44.001,9.984L44.001,6ZM39.001,6L35.001,6L35.001,9.984L39.001,9.984L39.001,6ZM34.001,6L30.006,6L30.006,9.984L34.001,9.984L34.001,6ZM29.006,6L24.995,6L24.995,9.984L29.006,9.984L29.006,6ZM23.995,6L19.995,6L19.995,9.984L23.995,9.984L23.995,6ZM18.995,6L14.995,6L14.995,9.984L18.995,9.984L18.995,6ZM13.995,6L9.995,6L9.995,9.984L13.995,9.984L13.995,6ZM8.995,6L5,6L5,9.984L8.995,9.984L8.995,6ZM79,1L75,1L75,4.984L79,4.984L79,1ZM74,1L70,1L70,4.984L74,4.984L74,1ZM69,1L65,1L65,4.984L69,4.984L69,1ZM64,1L60.005,1L60.005,4.984L64,4.984L64,1ZM59.005,1L54.994,1L54.994,4.984L59.005,4.984L59.005,1ZM53.994,1L50.001,1L50.001,4.984L53.994,4.984L53.994,1ZM49.001,1L45.001,1L45.001,4.984L49.001,4.984L49.001,1ZM44.001,1L40.001,1L40.001,4.984L44.001,4.984L44.001,1ZM39.001,1L35.001,1L35.001,4.984L39.001,4.984L39.001,1ZM34.001,1L30.006,1L30.006,4.984L34.001,4.984L34.001,1ZM29.006,1L24.995,1L24.995,4.984L29.006,4.984L29.006,1ZM23.995,1L19.995,1L19.995,4.984L23.995,4.984L23.995,1ZM18.995,1L14.995,1L14.995,4.984L18.995,4.984L18.995,1ZM13.995,1L9.995,1L9.995,4.984L13.995,4.984L13.995,1ZM8.995,1L5,1L5,4.984L8.995,4.984L8.995,1Z" style="fill-opacity:0.12;"/>
    <path d="M77,0L77,1L79,1L79,3L80,3L80,0L77,0Z" style="fill:hsl(0, 0%, 0%, 18%);"/>
    <rect x="0" y="0" width="2" height="1" style="fill:hsl(0, 0%, 0%, 18%);"/>
    <rect x="0" y="80" width="2" height="1" style="fill:hsl(0, 0%, 0%, 18%);"/>
    <rect x="79" y="158" width="1" height="2" style="fill:hsl(0, 0%, 0%, 18%);"/>
    <path d="M79,80L77,80L77,81L79,81L79,83L80,83L80,78L79,78L79,80Z" style="fill:hsl(0, 0%, 0%, 18%);"/>
</svg>
