<svg width="16" height="16" viewBox="0 0 16 16" fill="none">
  <path
    d="M11.3143 0.821349C10.9001 0.821349 10.5643 1.15713 10.5643 1.57135C10.5643 1.98556 10.9001 2.32135 11.3143 2.32135V1.57135V0.821349ZM14.457 1.57135H15.207C15.207 1.15713 14.8712 0.821349 14.457 0.821349V1.57135ZM13.707 4.71405C13.707 5.12826 14.0428 5.46405 14.457 5.46405C14.8712 5.46405 15.207 5.12826 15.207 4.71405H14.457H13.707ZM10.4697 4.49799C10.1768 4.79088 10.1768 5.26575 10.4697 5.55865C10.7626 5.85154 11.2374 5.85154 11.5303 5.55865L11 5.02832L10.4697 4.49799ZM4.5 12.5981L4.875 11.9486H4.875L4.5 12.5981ZM3.40192 11.5L2.7524 11.875H2.7524L3.40192 11.5ZM13.75 8C13.75 7.58579 13.4142 7.25 13 7.25C12.5858 7.25 12.25 7.58579 12.25 8H13H13.75ZM12.5981 11.5L11.9486 11.125V11.125L12.5981 11.5ZM11.5 12.5981L11.125 11.9486V11.9486L11.5 12.5981ZM8 3.75C8.41421 3.75 8.75 3.41421 8.75 3C8.75 2.58579 8.41421 2.25 8 2.25V3V3.75ZM4.5 3.40192L4.125 2.7524H4.125L4.5 3.40192ZM3.40192 4.5L2.7524 4.125H2.7524L3.40192 4.5ZM11.3143 1.57135V2.32135H14.457V1.57135V0.821349H11.3143V1.57135ZM14.457 1.57135H13.707V4.71405H14.457H15.207V1.57135H14.457ZM14.457 1.57135L13.9266 1.04102L10.4697 4.49799L11 5.02832L11.5303 5.55865L14.9873 2.10168L14.457 1.57135ZM8 13V12.25C7.05158 12.25 6.39041 12.2493 5.87779 12.2028C5.37549 12.1573 5.0899 12.0726 4.875 11.9486L4.5 12.5981L4.125 13.2476C4.60625 13.5254 5.13605 13.6417 5.7424 13.6967C6.33843 13.7507 7.07919 13.75 8 13.75V13ZM3 8H2.25C2.25 8.92081 2.24928 9.66157 2.3033 10.2576C2.35826 10.8639 2.47455 11.3937 2.7524 11.875L3.40192 11.5L4.05144 11.125C3.92737 10.9101 3.8427 10.6245 3.79718 10.1222C3.75072 9.60959 3.75 8.94842 3.75 8H3ZM4.5 12.5981L4.875 11.9486C4.53296 11.7511 4.24892 11.467 4.05144 11.125L3.40192 11.5L2.7524 11.875C3.08154 12.4451 3.55493 12.9185 4.125 13.2476L4.5 12.5981ZM13 8H12.25C12.25 8.94842 12.2493 9.60959 12.2028 10.1222C12.1573 10.6245 12.0726 10.9101 11.9486 11.125L12.5981 11.5L13.2476 11.875C13.5254 11.3937 13.6417 10.8639 13.6967 10.2576C13.7507 9.66157 13.75 8.92081 13.75 8H13ZM8 13V13.75C8.92081 13.75 9.66157 13.7507 10.2576 13.6967C10.8639 13.6417 11.3937 13.5254 11.875 13.2476L11.5 12.5981L11.125 11.9486C10.9101 12.0726 10.6245 12.1573 10.1222 12.2028C9.60959 12.2493 8.94842 12.25 8 12.25V13ZM12.5981 11.5L11.9486 11.125C11.7511 11.467 11.467 11.7511 11.125 11.9486L11.5 12.5981L11.875 13.2476C12.4451 12.9185 12.9185 12.4451 13.2476 11.875L12.5981 11.5ZM8 3V2.25C7.07919 2.25 6.33843 2.24928 5.7424 2.3033C5.13605 2.35826 4.60625 2.47455 4.125 2.7524L4.5 3.40192L4.875 4.05144C5.0899 3.92737 5.37549 3.8427 5.87779 3.79718C6.39041 3.75072 7.05158 3.75 8 3.75V3ZM3 8H3.75C3.75 7.05158 3.75072 6.39041 3.79718 5.87779C3.8427 5.37549 3.92737 5.0899 4.05144 4.875L3.40192 4.5L2.7524 4.125C2.47455 4.60625 2.35826 5.13605 2.3033 5.7424C2.24928 6.33843 2.25 7.07919 2.25 8H3ZM4.5 3.40192L4.125 2.7524C3.55493 3.08154 3.08154 3.55493 2.7524 4.125L3.40192 4.5L4.05144 4.875C4.24892 4.53296 4.53296 4.24892 4.875 4.05144L4.5 3.40192Z"
    fill="currentColor"></path>
</svg>