<svg width="16" height="16" x="0" y="0" viewBox="0 0 18 18">
  <path
    fill="none"
    stroke="currentColor"
    stroke-linecap="round"
    stroke-linejoin="round"
    stroke-width="1.5"
    d="M2.75 14V4.25a2 2 0 0 1 2-2h10.5v10"></path>
  <path
    fill="currentColor"
    d="M11 14H7v3.5a.5.5 0 0 0 .854.354L9 16.708l1.146 1.146A.5.5 0 0 0 11 17.5z"
  ></path>
  <path
    fill="none"
    stroke="currentColor"
    stroke-linecap="round"
    stroke-linejoin="round"
    stroke-width="1.5"
    d="M5.25 15.75H4.5a1.75 1.75 0 1 1 0-3.5h10.75c-.641.844-.734 2.547 0 3.5h-2.5"
  ></path>
  <circle cx="5.75" cy="9.75" r=".75" fill="currentColor"></circle>
  <circle cx="5.75" cy="4.75" r=".75" fill="currentColor"></circle>
  <circle cx="5.75" cy="7.25" r=".75" fill="currentColor"></circle>
</svg>